<svg xmlns="http://www.w3.org/2000/svg" enable-background="new 0 0 24 24" viewBox="0 0 24 24" id="digital-ocean"><path fill="#0080FF" d="M11.955,24.004v-4.671c4.952,0,8.772-4.882,6.863-10.049c-0.703-1.942-2.232-3.471-4.174-4.174C10.83,3.676,6.575,5.605,5.142,9.42c-0.307,0.816-0.467,1.681-0.473,2.553H0C0,4.189,7.57-1.968,15.847,0.58c3.609,1.134,6.437,3.962,7.57,7.572C25.964,16.432,19.808,24.004,11.955,24.004L11.955,24.004z"></path><path fill="#006FDE" d="M12,19.333c-0.015,0-0.03,0-0.045,0V24H12V19.333L12,19.333z M12,0h-0.256C5.228,0.159,0,5.504,0,11.973l0,0h4.669c0.006-0.873,0.165-1.737,0.473-2.553C6.248,6.477,9.033,4.656,12,4.636V0L12,0z"></path><polygon fill="#0080FF" points="12.026 19.333 7.357 19.333 7.357 14.733 12.026 14.733 12.026 19.333"></polygon><polygon fill="#006FDE" points="9.691 14.733 7.357 14.733 7.357 19.333 9.691 19.333 9.691 14.733"></polygon><polygon fill="#0080FF" points="7.357 22.943 3.82 22.943 3.82 19.333 7.357 19.333 7.357 22.943"></polygon><polygon fill="#006FDE" points="5.589 19.333 3.82 19.333 3.82 22.943 5.589 22.943 5.589 19.333"></polygon><polygon fill="#0080FF" points="3.82 19.333 .853 19.333 .853 16.361 3.82 16.361 3.82 19.333"></polygon><polygon fill="#006FDE" points="2.364 16.361 .853 16.361 .853 19.333 2.364 19.333 2.364 16.361"></polygon></svg>